M48
METRIC,0000.00
T01C0.486
T02C0.9
T03C1.2
T04C2.0
T05C3.2
%
T01
X+003873Y+001143
X+003746Y+001143
X+003619Y+001143
X+003492Y+001143
X+003492Y+001270
X+003619Y+001270
X+003619Y+001397
X+003492Y+001397
X+003365Y+001397
X+003365Y+001270
X+003238Y+001270
X+003238Y+001397
X+003111Y+001397
X+002984Y+001397
X+002984Y+001270
X+003111Y+001270
X+003111Y+001143
X+002984Y+001143
X+002857Y+001143
X+002730Y+001143
X+002730Y+001270
X+002857Y+001270
X+002857Y+001397
X+002730Y+001397
X+002730Y+001524
X+002857Y+001524
X+002857Y+001651
X+002730Y+001651
X+002730Y+001778
X+002857Y+001778
X+002984Y+001778
X+003111Y+001778
X+003111Y+001905
X+002984Y+001905
X+003238Y+001905
X+003238Y+001778
X+003365Y+001778
X+003365Y+001905
X+003492Y+001905
X+003619Y+001905
X+003619Y+001778
X+003492Y+001778
X+003492Y+001651
X+003619Y+001651
X+003619Y+001524
X+003492Y+001524
X+003365Y+001524
X+003238Y+001524
X+003238Y+001651
X+003365Y+001651
X+003111Y+001651
X+002984Y+001651
X+002984Y+001524
X+003111Y+001524
X+003238Y+001143
X+003365Y+001143
X+003746Y+001270
X+003873Y+001270
X+003873Y+001397
X+003746Y+001397
X+003746Y+001524
X+003873Y+001524
X+003873Y+001651
X+003746Y+001651
X+003746Y+001778
X+003873Y+001778
X+003873Y+001905
X+003746Y+001905
X+003261Y+002490
X+002905Y+002842
X+002905Y+002984
X+002762Y+002984
X+002619Y+002984
X+002619Y+002842
X+002762Y+002842
X+002476Y+002842
X+002334Y+002841
X+002191Y+002841
X+002191Y+002984
X+002334Y+002984
X+002476Y+002984
X+001921Y+002429
X+001778Y+002429
X+001635Y+002429
X+001635Y+002286
X+001778Y+002286
X+001921Y+002286
X+006223Y+002270
X+006366Y+002270
X+006509Y+002270
X+006651Y+002270
X+006651Y+002413
X+006509Y+002413
X+006366Y+002413
X+006223Y+002413
T02
X+004439Y+001321
X+004693Y+001321
X+004947Y+001321
T03
X+002308Y+001850
X+002308Y+002350
X+001243Y+002343
X+001243Y+001843
X+005941Y+001851
X+005941Y+002351
X+007007Y+002343
X+007007Y+001843
T04
X+001243Y+002951
X+001243Y+001242
X+007015Y+001242
X+007015Y+002951
T05
X+001841Y+002937
X+001841Y+001254
X+006398Y+001254
X+006398Y+002937
T00
M30
