G04 DipTrace 3.3.1.0*
G04 Top.gbr*
%MOMM*%
G04 #@! TF.FileFunction,Copper,L1,Top*
G04 #@! TF.Part,Single*
G04 #@! TA.AperFunction,Conductor*
%ADD13C,0.9*%
%ADD14C,0.8*%
G04 #@! TA.AperFunction,CopperBalancing*
%ADD15C,0.5*%
%ADD18R,2.1X4.05*%
G04 #@! TA.AperFunction,ComponentPad*
%ADD19C,2.1*%
%ADD20R,1.3X1.5*%
%ADD22R,2.4X2.4*%
%ADD23R,2.9X5.4*%
G04 #@! TA.AperFunction,ComponentPad*
%ADD24R,4.0X4.0*%
%ADD25R,1.5X1.5*%
%ADD26C,1.5*%
%ADD28R,1.0X3.0*%
%ADD29R,10.6X9.0*%
G04 #@! TA.AperFunction,ComponentPad*
%ADD30C,2.5*%
G04 #@! TA.AperFunction,ViaPad*
%ADD31C,1.016*%
%FSLAX35Y35*%
G04*
G71*
G90*
G75*
G01*
G04 Top*
%LPD*%
X3771050Y2490050D2*
D13*
Y2199427D1*
X3698750Y2127127D1*
X2889130D1*
X2698627Y1936623D1*
X2308250D1*
Y1695150D1*
X3261050Y2490050D2*
D14*
D3*
X4476800Y1726850D2*
X4678140D1*
X4905773D1*
X4692850Y1321400D2*
Y1712140D1*
X4678140Y1726850D1*
X4692850Y1321400D2*
X4946850D1*
D31*
X3261050Y2490050D3*
X3873373Y1142877D3*
X3746377D3*
X3619373D3*
X3492380D3*
X3365373Y1142873D3*
X3238380D3*
X3111377D3*
X2984383D3*
X2857373Y1142877D3*
X2730380D3*
X3873373Y1269877D3*
X3746380Y1269880D3*
X3619377Y1269877D3*
X3492383D3*
X3365377D3*
X3238383D3*
X3111380D3*
X2984387D3*
X2857377D3*
X2730383D3*
X3873370Y1396870D3*
X3746377Y1396877D3*
X3619370Y1396870D3*
X3492377D3*
X3365373D3*
X3238377D3*
X3111373D3*
X2984380D3*
X2857370D3*
X2730377D3*
X3873370Y1523873D3*
X3746380Y1523877D3*
X3619377Y1523873D3*
X3492380D3*
X3365377D3*
X3238383D3*
X3111380D3*
X2984383D3*
X2857377D3*
X2730380D3*
X3873370Y1650870D3*
X3746373Y1650873D3*
X3619370Y1650870D3*
X3492377D3*
X3365373D3*
X3238377D3*
X3111373D3*
X2984380D3*
X2857370D3*
X2730377D3*
X3873370Y1777873D3*
X3746380Y1777877D3*
X3619377Y1777873D3*
X3492380D3*
X3365377D3*
X3238383D3*
X3111380D3*
X2984383D3*
X2857377D3*
X2730380D3*
X3873370Y1904870D3*
X3746373Y1904873D3*
X3619367Y1904870D3*
X3492377D3*
X3365373D3*
X3238373D3*
X3111373D3*
X2984380D3*
X6222873Y2412877D3*
X6365750D3*
X6508620D3*
X6651500D3*
X6222877Y2269997D3*
X6365753D3*
X6508623Y2270000D3*
X6651500D3*
X2190623Y2984377D3*
X2333500D3*
X2476370D3*
X2619250D3*
X2190627Y2841497D3*
X2333503D3*
X2476373Y2841500D3*
X2619250D3*
X2762120Y2984377D3*
X2905000D3*
X2762123Y2841500D3*
X2905000D3*
X1635000Y2428750D3*
X1777877D3*
X1920747D3*
X1635003Y2285870D3*
X1777880D3*
X1920750Y2285877D3*
X1077673Y1988957D2*
D15*
X2525733D1*
X1077673Y1939290D2*
X2525733D1*
X1077673Y1889623D2*
X2525733D1*
X1077673Y1839957D2*
X2525733D1*
X1077673Y1790290D2*
X2525733D1*
X1077673Y1740623D2*
X2525733D1*
X1077673Y1690957D2*
X2525733D1*
X1077673Y1641290D2*
X2525733D1*
X1077673Y1591623D2*
X2525733D1*
X1077673Y1541957D2*
X2525733D1*
X1077673Y1492290D2*
X2525733D1*
X1077673Y1442623D2*
X1713077D1*
X1969627D2*
X2525733D1*
X1077673Y1392957D2*
X1659027D1*
X2023767D2*
X2525733D1*
X1077673Y1343290D2*
X1629497D1*
X2053297D2*
X2525733D1*
X1077673Y1293623D2*
X1614547D1*
X2068153D2*
X2525733D1*
X1077673Y1243957D2*
X1611267D1*
X2071527D2*
X2525733D1*
X1077673Y1194290D2*
X1619103D1*
X2063687D2*
X2525733D1*
X1077673Y1144623D2*
X1639340D1*
X2043363D2*
X2525733D1*
X1077673Y1094957D2*
X1676710D1*
X2005993D2*
X2525733D1*
X2066013Y1236320D2*
X2063933Y1218750D1*
X2060480Y1201397D1*
X2055677Y1184367D1*
X2049553Y1167770D1*
X2042147Y1151700D1*
X2033500Y1136263D1*
X2023673Y1121553D1*
X2012717Y1107657D1*
X2000707Y1094667D1*
X1987717Y1082657D1*
X1974960Y1072600D1*
X2530660Y1072623D1*
X2530750Y2038653D1*
X1072717Y2038623D1*
X1072627Y1072593D1*
X1707613Y1072623D1*
X1695030Y1082657D1*
X1682040Y1094667D1*
X1670030Y1107657D1*
X1659073Y1121553D1*
X1649247Y1136263D1*
X1640600Y1151700D1*
X1633193Y1167770D1*
X1627070Y1184367D1*
X1622267Y1201397D1*
X1618813Y1218750D1*
X1616733Y1236320D1*
X1616040Y1254000D1*
X1616733Y1271680D1*
X1618813Y1289250D1*
X1622267Y1306603D1*
X1627070Y1323633D1*
X1633193Y1340230D1*
X1640600Y1356300D1*
X1649247Y1371737D1*
X1659073Y1386447D1*
X1670030Y1400343D1*
X1682040Y1413333D1*
X1695030Y1425343D1*
X1708927Y1436300D1*
X1723637Y1446127D1*
X1739073Y1454773D1*
X1755143Y1462180D1*
X1771740Y1468303D1*
X1788770Y1473107D1*
X1806123Y1476560D1*
X1823693Y1478640D1*
X1841373Y1479333D1*
X1859053Y1478640D1*
X1876623Y1476560D1*
X1893977Y1473107D1*
X1911007Y1468303D1*
X1927603Y1462180D1*
X1943673Y1454773D1*
X1959110Y1446127D1*
X1973820Y1436300D1*
X1987717Y1425343D1*
X2000707Y1413333D1*
X2012717Y1400343D1*
X2023673Y1386447D1*
X2033500Y1371737D1*
X2042147Y1356300D1*
X2049553Y1340230D1*
X2055677Y1323633D1*
X2060480Y1306603D1*
X2063933Y1289250D1*
X2066013Y1271680D1*
X2066707Y1254000D1*
X2066013Y1236320D1*
X1076470Y3068457D2*
X1653540D1*
X2029217D2*
X3351223D1*
X1075650Y3018790D2*
X1626470D1*
X2056287D2*
X3351223D1*
X1074920Y2969123D2*
X1613347D1*
X2069413D2*
X3351223D1*
X1074100Y2919457D2*
X1611703D1*
X2071053D2*
X3351223D1*
X1073370Y2869790D2*
X1621183D1*
X2061573D2*
X3351223D1*
X1072550Y2820123D2*
X1643607D1*
X2039153D2*
X3351223D1*
X1071820Y2770457D2*
X1684347D1*
X1998410D2*
X3352407D1*
X1071000Y2720790D2*
X1772030D1*
X1910727D2*
X3462330D1*
X1070273Y2671123D2*
X3146053D1*
X3376080D2*
X3462330D1*
X1069453Y2621457D2*
X3146053D1*
X3376080D2*
X3462330D1*
X1068723Y2571790D2*
X3146053D1*
X3376080D2*
X3462330D1*
X1067903Y2522123D2*
X3146053D1*
X3376080D2*
X3462330D1*
X1067173Y2472457D2*
X3146053D1*
X3376080D2*
X3462330D1*
X1066353Y2422790D2*
X3146053D1*
X3376080D2*
X3462330D1*
X1065623Y2373123D2*
X3146053D1*
X3376080D2*
X3462330D1*
X1064803Y2323457D2*
X3146053D1*
X3376080D2*
X3462330D1*
X1064073Y2273790D2*
X3661027D1*
X3881027D2*
X3938657D1*
X1063253Y2224123D2*
X2843903D1*
X3881027D2*
X3938657D1*
X1062523Y2174457D2*
X2782930D1*
X3878020D2*
X3938657D1*
X2649283Y2124790D2*
X2733347D1*
X3849947D2*
X3938657D1*
X2649283Y2075123D2*
X2683563D1*
X3800273D2*
X3938657D1*
X3730000Y2025457D2*
X3938657D1*
X2891273Y1975790D2*
X3938657D1*
X2841600Y1926123D2*
X3938657D1*
X2791927Y1876457D2*
X3938657D1*
X2649283Y1826790D2*
X3943307D1*
X2649283Y1777123D2*
X4319647D1*
X2649283Y1727457D2*
X4319647D1*
X2649283Y1677790D2*
X4319647D1*
X2649283Y1628123D2*
X3940297D1*
X2649283Y1578457D2*
X3938657D1*
X2649283Y1528790D2*
X3938657D1*
X2649283Y1479123D2*
X3938657D1*
X2649283Y1429457D2*
X3938657D1*
X2649283Y1379790D2*
X3938657D1*
X2649283Y1330123D2*
X3938657D1*
X2649283Y1280457D2*
X3938657D1*
X2649283Y1230790D2*
X3938657D1*
X2649283Y1181123D2*
X3938657D1*
X2649283Y1131457D2*
X3938657D1*
X2649283Y1081790D2*
X3938657D1*
X2066017Y2919070D2*
X2063937Y2901500D1*
X2060483Y2884147D1*
X2055680Y2867117D1*
X2049557Y2850520D1*
X2042150Y2834450D1*
X2033503Y2819013D1*
X2023677Y2804303D1*
X2012720Y2790407D1*
X2000710Y2777417D1*
X1987720Y2765407D1*
X1973823Y2754450D1*
X1959113Y2744623D1*
X1943677Y2735977D1*
X1927607Y2728570D1*
X1911010Y2722447D1*
X1893980Y2717643D1*
X1876627Y2714190D1*
X1859057Y2712110D1*
X1841377Y2711417D1*
X1823697Y2712110D1*
X1806127Y2714190D1*
X1788773Y2717643D1*
X1771743Y2722447D1*
X1755147Y2728570D1*
X1739077Y2735977D1*
X1723640Y2744623D1*
X1708930Y2754450D1*
X1695033Y2765407D1*
X1682043Y2777417D1*
X1670033Y2790407D1*
X1659077Y2804303D1*
X1649250Y2819013D1*
X1640603Y2834450D1*
X1633197Y2850520D1*
X1627073Y2867117D1*
X1622270Y2884147D1*
X1618817Y2901500D1*
X1616737Y2919070D1*
X1616043Y2936750D1*
X1616737Y2954430D1*
X1618817Y2972000D1*
X1622270Y2989353D1*
X1627073Y3006383D1*
X1633197Y3022980D1*
X1640603Y3039050D1*
X1649250Y3054487D1*
X1659077Y3069197D1*
X1670033Y3083093D1*
X1682043Y3096083D1*
X1695033Y3108093D1*
X1707790Y3118150D1*
X1072253Y3118123D1*
X1057143Y2152190D1*
X2623160Y2151817D1*
X2630600Y2149400D1*
X2636927Y2144800D1*
X2641527Y2138473D1*
X2643943Y2131033D1*
X2644250Y2057123D1*
Y2041537D1*
X2657380Y2043867D1*
X2820937Y2206970D1*
X2834267Y2216653D1*
X2848947Y2224133D1*
X2864617Y2229227D1*
X2880893Y2231803D1*
X2982463Y2232127D1*
X3655210D1*
X3666073Y2242943D1*
X3666050Y2276810D1*
X3488463Y2277057D1*
X3481023Y2279473D1*
X3474697Y2284073D1*
X3470097Y2290400D1*
X3467680Y2297840D1*
X3467373Y2371750D1*
Y2753013D1*
X3377340Y2753307D1*
X3369900Y2755723D1*
X3363573Y2760323D1*
X3358973Y2766650D1*
X3356557Y2774090D1*
X3356250Y2848000D1*
Y3118067D1*
X1975143Y3118123D1*
X1987720Y3108093D1*
X2000710Y3096083D1*
X2012720Y3083093D1*
X2023677Y3069197D1*
X2033503Y3054487D1*
X2042150Y3039050D1*
X2049557Y3022980D1*
X2055680Y3006383D1*
X2060483Y2989353D1*
X2063937Y2972000D1*
X2066017Y2954430D1*
X2066710Y2936750D1*
X2066017Y2919070D1*
X3174383Y2700050D2*
X3371050D1*
X3371510Y2498743D1*
Y2481357D1*
X3371050Y2466717D1*
Y2280050D1*
X3151050D1*
X3150590Y2481357D1*
Y2498743D1*
X3151050Y2513383D1*
Y2700050D1*
X3174383D1*
X3876050Y2276677D2*
X3875727Y2191190D1*
X3873150Y2174913D1*
X3868057Y2159243D1*
X3860577Y2144563D1*
X3850893Y2131233D1*
X3772997Y2052880D1*
X3760467Y2042180D1*
X3746420Y2033570D1*
X3731197Y2027267D1*
X3715177Y2023420D1*
X3698750Y2022127D1*
X2932670D1*
X2766820Y1856780D1*
X2753490Y1847097D1*
X2738810Y1839617D1*
X2723140Y1834523D1*
X2706863Y1831947D1*
X2644213Y1831623D1*
X2644250Y1072657D1*
X3943690Y1072623D1*
X3943933Y1623033D1*
X3946350Y1630473D1*
X3950950Y1636800D1*
X3957277Y1641400D1*
X3964717Y1643817D1*
X4038627Y1644123D1*
X4324550D1*
X4324627Y1816453D1*
X3964717Y1816680D1*
X3957277Y1819097D1*
X3950950Y1823697D1*
X3946350Y1830023D1*
X3943933Y1837463D1*
X3943627Y1911373D1*
Y2276777D1*
X3876113Y2276750D1*
X5744920Y3068457D2*
X6209697D1*
X6585373D2*
X7177120D1*
X5744920Y3018790D2*
X6182627D1*
X6612353D2*
X7177120D1*
X5744920Y2969123D2*
X6169503D1*
X6625480D2*
X7177120D1*
X5744920Y2919457D2*
X6167860D1*
X6627210D2*
X7177120D1*
X5744920Y2869790D2*
X6177340D1*
X6617640D2*
X7177120D1*
X5744920Y2820123D2*
X6199670D1*
X6595310D2*
X7177120D1*
X5744920Y2770457D2*
X6240413D1*
X6554567D2*
X7177120D1*
X5744920Y2720790D2*
X6328187D1*
X6466793D2*
X7177120D1*
X5744920Y2671123D2*
X7177120D1*
X5744920Y2621457D2*
X7177120D1*
X5744920Y2571790D2*
X7177120D1*
X5744920Y2522123D2*
X7177120D1*
X5744920Y2472457D2*
X7177120D1*
X5744920Y2422790D2*
X7177120D1*
X5744920Y2373123D2*
X7177120D1*
X5744920Y2323457D2*
X7177120D1*
X5744920Y2273790D2*
X7177120D1*
X5744920Y2224123D2*
X7177120D1*
X5744920Y2174457D2*
X7177120D1*
X6622143Y2919070D2*
X6620063Y2901500D1*
X6616610Y2884147D1*
X6611807Y2867117D1*
X6605683Y2850520D1*
X6598277Y2834450D1*
X6589630Y2819013D1*
X6579803Y2804303D1*
X6568847Y2790407D1*
X6556837Y2777417D1*
X6543847Y2765407D1*
X6529950Y2754450D1*
X6515240Y2744623D1*
X6499803Y2735977D1*
X6483733Y2728570D1*
X6467137Y2722447D1*
X6450107Y2717643D1*
X6432753Y2714190D1*
X6415183Y2712110D1*
X6397503Y2711417D1*
X6379823Y2712110D1*
X6362253Y2714190D1*
X6344900Y2717643D1*
X6327870Y2722447D1*
X6311273Y2728570D1*
X6295203Y2735977D1*
X6279767Y2744623D1*
X6265057Y2754450D1*
X6251160Y2765407D1*
X6238170Y2777417D1*
X6226160Y2790407D1*
X6215203Y2804303D1*
X6205377Y2819013D1*
X6196730Y2834450D1*
X6189323Y2850520D1*
X6183200Y2867117D1*
X6178397Y2884147D1*
X6174943Y2901500D1*
X6172863Y2919070D1*
X6172170Y2936750D1*
X6172863Y2954430D1*
X6174943Y2972000D1*
X6178397Y2989353D1*
X6183200Y3006383D1*
X6189323Y3022980D1*
X6196730Y3039050D1*
X6205377Y3054487D1*
X6215203Y3069197D1*
X6226160Y3083093D1*
X6238170Y3096083D1*
X6251160Y3108093D1*
X6263917Y3118150D1*
X5739953Y3118123D1*
X5739873Y2152093D1*
X7182047Y2152123D1*
X7182127Y3118153D1*
X6531280Y3118123D1*
X6543847Y3108093D1*
X6556837Y3096083D1*
X6568847Y3083093D1*
X6579803Y3069197D1*
X6589630Y3054487D1*
X6598277Y3039050D1*
X6605683Y3022980D1*
X6611807Y3006383D1*
X6616610Y2989353D1*
X6620063Y2972000D1*
X6622143Y2954430D1*
X6622837Y2936750D1*
X6622143Y2919070D1*
X5062223Y3068457D2*
X5621340D1*
X5062223Y3018790D2*
X5621340D1*
X5062223Y2969123D2*
X5621340D1*
X5062223Y2919457D2*
X5621340D1*
X5062223Y2869790D2*
X5621340D1*
X5062223Y2820123D2*
X5621340D1*
X5062223Y2770457D2*
X5621340D1*
X5062223Y2720790D2*
X5621340D1*
X5062223Y2671123D2*
X5621340D1*
X5062223Y2621457D2*
X5621340D1*
X5062223Y2571790D2*
X5621340D1*
X5062223Y2522123D2*
X5621340D1*
X5062223Y2472457D2*
X5621340D1*
X5062223Y2422790D2*
X5621340D1*
X5062223Y2373123D2*
X5621340D1*
X5062223Y2323457D2*
X5621340D1*
X5062223Y2273790D2*
X5621340D1*
X5062223Y2224123D2*
X5621340D1*
X5062223Y2174457D2*
X5621340D1*
X5062223Y2124790D2*
X5621340D1*
X5062223Y2075123D2*
X5621340D1*
X5062223Y2025457D2*
X7177107D1*
X5062223Y1975790D2*
X7177107D1*
X5062223Y1926123D2*
X7177107D1*
X5062223Y1876457D2*
X7177107D1*
X5062223Y1826790D2*
X7177107D1*
X5062223Y1777123D2*
X7177107D1*
X5062223Y1727457D2*
X7177107D1*
X5062223Y1677790D2*
X7177107D1*
X5062223Y1628123D2*
X7177107D1*
X5062223Y1578457D2*
X7177107D1*
X4062173Y1528790D2*
X4587837D1*
X4797810D2*
X7177107D1*
X4062173Y1479123D2*
X4587837D1*
X4797810D2*
X6382770D1*
X6412237D2*
X7177107D1*
X4062173Y1429457D2*
X4587837D1*
X4797810D2*
X4860910D1*
X5032783D2*
X6251157D1*
X6543890D2*
X7177107D1*
X4062173Y1379790D2*
X4566143D1*
X5073527D2*
X6205583D1*
X6589463D2*
X7177107D1*
X4062173Y1330123D2*
X4553110D1*
X5086560D2*
X6180427D1*
X6614620D2*
X7177107D1*
X4062173Y1280457D2*
X4559217D1*
X5080453D2*
X6168760D1*
X6626287D2*
X7177107D1*
X4062173Y1230790D2*
X4587747D1*
X5051923D2*
X6168397D1*
X6626650D2*
X7177107D1*
X4062173Y1181123D2*
X6179243D1*
X6615713D2*
X7177107D1*
X4062173Y1131457D2*
X6203397D1*
X6591560D2*
X7177107D1*
X4062173Y1081790D2*
X6247147D1*
X6547810D2*
X7177107D1*
X6622140Y1236320D2*
X6620060Y1218750D1*
X6616607Y1201397D1*
X6611803Y1184367D1*
X6605680Y1167770D1*
X6598273Y1151700D1*
X6589627Y1136263D1*
X6579800Y1121553D1*
X6568843Y1107657D1*
X6556833Y1094667D1*
X6543843Y1082657D1*
X6531087Y1072600D1*
X7182037Y1072623D1*
X7182127Y2038653D1*
X5647467Y2038930D1*
X5640027Y2041347D1*
X5633700Y2045947D1*
X5629100Y2052273D1*
X5626683Y2059713D1*
X5626377Y2133623D1*
Y3118090D1*
X5057197Y3118123D1*
X5056943Y1551713D1*
X5054527Y1544273D1*
X5049927Y1537947D1*
X5043600Y1533347D1*
X5036160Y1530930D1*
X4962250Y1530623D1*
X4792810D1*
X4792850Y1421477D1*
X4856093Y1421400D1*
X4867500Y1430617D1*
X4885560Y1441687D1*
X4905133Y1449793D1*
X4925730Y1454737D1*
X4946850Y1456400D1*
X4967970Y1454737D1*
X4988567Y1449793D1*
X5008140Y1441687D1*
X5026200Y1430617D1*
X5042310Y1416860D1*
X5056067Y1400750D1*
X5067137Y1382690D1*
X5075243Y1363117D1*
X5080187Y1342520D1*
X5081850Y1321400D1*
X5080187Y1300280D1*
X5075243Y1279683D1*
X5067137Y1260110D1*
X5056067Y1242050D1*
X5042310Y1225940D1*
X5026200Y1212183D1*
X5008140Y1201113D1*
X4988567Y1193007D1*
X4967970Y1188063D1*
X4946850Y1186400D1*
X4925730Y1188063D1*
X4905133Y1193007D1*
X4885560Y1201113D1*
X4867500Y1212183D1*
X4856287Y1221417D1*
X4783607Y1221400D1*
X4772200Y1212183D1*
X4754140Y1201113D1*
X4734567Y1193007D1*
X4713970Y1188063D1*
X4692850Y1186400D1*
X4671730Y1188063D1*
X4651133Y1193007D1*
X4631560Y1201113D1*
X4613500Y1212183D1*
X4597390Y1225940D1*
X4583633Y1242050D1*
X4572563Y1260110D1*
X4564457Y1279683D1*
X4559513Y1300280D1*
X4557850Y1321400D1*
X4559513Y1342520D1*
X4564457Y1363117D1*
X4572563Y1382690D1*
X4583633Y1400750D1*
X4592867Y1411963D1*
X4592850Y1530580D1*
X4057080Y1530623D1*
X4057127Y1072640D1*
X6263833Y1072623D1*
X6251157Y1082657D1*
X6238167Y1094667D1*
X6226157Y1107657D1*
X6215200Y1121553D1*
X6205373Y1136263D1*
X6196727Y1151700D1*
X6189320Y1167770D1*
X6183197Y1184367D1*
X6178393Y1201397D1*
X6174940Y1218750D1*
X6172860Y1236320D1*
X6172167Y1254000D1*
X6172860Y1271680D1*
X6174940Y1289250D1*
X6178393Y1306603D1*
X6183197Y1323633D1*
X6189320Y1340230D1*
X6196727Y1356300D1*
X6205373Y1371737D1*
X6215200Y1386447D1*
X6226157Y1400343D1*
X6238167Y1413333D1*
X6251157Y1425343D1*
X6265053Y1436300D1*
X6279763Y1446127D1*
X6295200Y1454773D1*
X6311270Y1462180D1*
X6327867Y1468303D1*
X6344897Y1473107D1*
X6362250Y1476560D1*
X6379820Y1478640D1*
X6397500Y1479333D1*
X6415180Y1478640D1*
X6432750Y1476560D1*
X6450103Y1473107D1*
X6467133Y1468303D1*
X6483730Y1462180D1*
X6499800Y1454773D1*
X6515237Y1446127D1*
X6529947Y1436300D1*
X6543843Y1425343D1*
X6556833Y1413333D1*
X6568843Y1400343D1*
X6579800Y1386447D1*
X6589627Y1371737D1*
X6598273Y1356300D1*
X6605680Y1340230D1*
X6611803Y1323633D1*
X6616607Y1306603D1*
X6620060Y1289250D1*
X6622140Y1271680D1*
X6622833Y1254000D1*
X6622140Y1236320D1*
X3506547Y3068457D2*
X4938747D1*
X3506547Y3018790D2*
X4938747D1*
X3506547Y2969123D2*
X4938747D1*
X3506547Y2919457D2*
X4938747D1*
X3506547Y2869790D2*
X4938747D1*
X3569983Y2820123D2*
X4938747D1*
X3569983Y2770457D2*
X4938747D1*
X3569983Y2720790D2*
X4938747D1*
X3569983Y2671123D2*
X3649307D1*
X3887537D2*
X4938747D1*
X3569983Y2621457D2*
X3649853D1*
X3887537D2*
X4938747D1*
X3569983Y2571790D2*
X3650310D1*
X3887537D2*
X4938747D1*
X3569983Y2522123D2*
X3650857D1*
X3887537D2*
X4938747D1*
X3569983Y2472457D2*
X3651403D1*
X3887537D2*
X4938747D1*
X3569983Y2422790D2*
X3651950D1*
X3887537D2*
X4938747D1*
X3569983Y2373123D2*
X3652497D1*
X4029083D2*
X4938747D1*
X4046220Y2323457D2*
X4938747D1*
X4046220Y2273790D2*
X4938747D1*
X4046220Y2224123D2*
X4938747D1*
X4046220Y2174457D2*
X4938747D1*
X4046220Y2124790D2*
X4938747D1*
X4046220Y2075123D2*
X4938747D1*
X4046220Y2025457D2*
X4938747D1*
X4046220Y1975790D2*
X4938747D1*
X4046220Y1926123D2*
X4938747D1*
X3875543Y2700050D2*
X3881050D1*
X3881277Y2690477D1*
X3882500Y2682750D1*
Y2374403D1*
X4020160Y2374070D1*
X4027600Y2371653D1*
X4033927Y2367053D1*
X4038527Y2360727D1*
X4040943Y2353287D1*
X4041250Y2279377D1*
Y1913973D1*
X4943660Y1914000D1*
X4943750Y3118100D1*
X3501577Y3118123D1*
X3501500Y2850637D1*
X3543910Y2850317D1*
X3551350Y2847900D1*
X3557677Y2843300D1*
X3562277Y2836973D1*
X3564693Y2829533D1*
X3565000Y2755623D1*
Y2361783D1*
X3657620Y2361750D1*
X3654433Y2686020D1*
X3656773Y2693483D1*
X3661050Y2700050D1*
X3667580Y2704523D1*
X3674993Y2707020D1*
X3725780Y2707470D1*
X3861410Y2707443D1*
X3868850Y2705027D1*
X3875183Y2700423D1*
X4443173Y1766710D2*
X4938757D1*
X4443173Y1717043D2*
X4938757D1*
X4443173Y1667377D2*
X4938757D1*
X4943687Y1816377D2*
X4438190Y1816373D1*
X4438127Y1644043D1*
X4943687Y1644123D1*
X4943750Y1816453D1*
D18*
X2308250Y1695150D3*
Y2505150D3*
D19*
Y1850150D3*
Y2350150D3*
D20*
X2491100Y1289600D3*
X2681100D3*
D18*
X5941423Y1696250D3*
Y2506250D3*
D19*
Y1851250D3*
Y2351250D3*
D20*
X5588877Y2968500D3*
X5778877D3*
X5095777Y1726850D3*
X4905777D3*
D22*
X3644100Y2959127D3*
X3204100D3*
D23*
X4224200Y2513950D3*
X5194200D3*
D24*
X1242950Y2951150D3*
Y1241927D3*
X7014650Y2951150D3*
Y1241927D3*
D25*
X4438850Y1321400D3*
D26*
X4692850D3*
X4946850D3*
D20*
X4286800Y1726850D3*
X4476800D3*
D28*
X3771050Y2490050D3*
X3601050D3*
X3431050D3*
X3261050D3*
X3091050D3*
D29*
X3431050Y1500050D3*
D30*
X1242950Y1842577D3*
Y2342577D3*
X7006700D3*
Y1842577D3*
M02*
